<?xml version="1.0" ?>
<!-- Uploaded to: SVG Repo, www.svgrepo.com, Generator: SVG Repo Mixer Tools -->
<svg fill="#000000" width="800px" height="800px" viewBox="0 0 64 64" xmlns="http://www.w3.org/2000/svg">
<title/>
<g id="Outline">
<path d="M20.5,11.66a4.94,4.94,0,1,0-4.94,4.94A4.94,4.94,0,0,0,20.5,11.66Zm-7.88,0a2.94,2.94,0,1,1,2.94,2.94A2.94,2.94,0,0,1,12.62,11.66Z"/>
<path d="M52.74,9.75a3.93,3.93,0,0,0-3.67,2.58,24.48,24.48,0,0,0-4.8-1.77c-.37-.11-9.08-2.54-14.75,4.29a53.23,53.23,0,0,0-3.41,4.64c-1.82,2.7-2.9,4.3-6.61,6A6.09,6.09,0,1,0,12,31.84a2.08,2.08,0,0,0,0,.25s0,0,0,.07V43.94c0,4.08,4.41,8.72,8.72,10.85a28.61,28.61,0,0,0,11.72,2.49,17.42,17.42,0,0,0,6.32-1,6.51,6.51,0,0,0,4-3.73c.37-1,.68-2,1-2.84C45,45.74,45.77,43.36,49.39,41c2.66-1.71,5.5-5.24,5.53-9V20.31s0,0,0,0A7.49,7.49,0,0,0,54.84,19a7.21,7.21,0,0,0-.53-1.75,3.92,3.92,0,0,0-1.57-7.51Zm-25,10.85a55,55,0,0,1,3.29-4.48c4.82-5.8,12.34-3.73,12.67-3.63,5.5,1.46,8.66,3.83,9.13,6.83s-2,6.56-4.55,8.21c-4.22,2.7-5.2,5.63-6.55,9.69-.29.86-.6,1.79-1,2.79A4.65,4.65,0,0,1,38,42.57c-4.41,1.76-12.19.68-16.41-1.4-3.9-1.92-7.74-6.09-7.61-9.16a6.1,6.1,0,0,0,5.31-4.27C24.35,25.68,25.72,23.65,27.77,20.6ZM9.34,25.94A4.09,4.09,0,1,1,13.43,30,4.09,4.09,0,0,1,9.34,25.94Zm43.58,5.83v.14c0,2.93-2.3,6-4.61,7.44-4.22,2.71-5.2,5.64-6.55,9.7-.29.86-.6,1.78-1,2.78A4.6,4.6,0,0,1,38,54.39c-4.41,1.77-12.19.68-16.41-1.4-3.7-1.82-7.64-5.88-7.61-9V37.31A19.73,19.73,0,0,0,20.66,43a28.45,28.45,0,0,0,11.72,2.49,17.21,17.21,0,0,0,6.32-1,6.51,6.51,0,0,0,4-3.73c.37-1,.68-2,1-2.84,1.31-3.94,2.11-6.31,5.73-8.64a13.1,13.1,0,0,0,3.53-3.41Zm.33-16.25a11,11,0,0,0-2.4-2.16,1.92,1.92,0,1,1,2.4,2.16Z"/>
</g>
</svg>